Coordinates
version=1
nRows=13
nColumns=27
inDegrees=yes

Units are S.I. units (second, meters, Newtons, ...)
If the header above contains a line with 'inDegrees', this indicates whether rotational values are in degrees (yes) or radians (no).

endheader
time	pelvis_rotation	pelvis_tilt	pelvis_list	pelvis_tx	pelvis_ty	pelvis_tz	hip_flexion_r	hip_adduction_r	hip_rotation_r	knee_angle_r	knee_rotation_r	knee_adduction_r	knee_angle_r_beta	ankle_angle_r	subtalar_angle_r	mtp_angle_r	hip_flexion_l	hip_adduction_l	hip_rotation_l	knee_angle_l	knee_rotation_l	knee_adduction_l	knee_angle_l_beta	ankle_angle_l	subtalar_angle_l	mtp_angle_l
      7.88500000	      9.77341609	    -47.94806638	      4.77739085	     -0.11860977	      0.73940515	     -1.17984239	    105.91949625	    -15.04842963	     -1.32279090	     76.33124217	      0.00000000	      3.84488331	      1.33223150	     14.36283953	      0.00000000	      0.00000000	    105.23878473	     -5.71899317	     -2.44945159	     70.58014343	      0.00000000	     -9.53108333	      1.23185589	     11.02308957	      0.00000000	      0.00000000
      7.89000000	     10.45949642	    -47.79871895	      4.51630716	     -0.11816462	      0.74040333	     -1.18015939	    105.37931656	    -15.86941091	     -2.16345099	     76.16854458	      0.00000000	      3.85224395	      1.32939189	     14.38882456	      0.00000000	      0.00000000	    105.08245634	     -4.89122542	     -1.67323264	     70.32608393	      0.00000000	     -9.18853874	      1.22742171	     10.83552027	      0.00000000	      0.00000000
      7.89500000	      9.89702938	    -47.97682857	      5.02492883	     -0.11890351	      0.74077804	     -1.17982118	    105.88116131	    -15.09360635	     -1.21372384	     76.08916210	      0.00000000	      3.84207741	      1.32800640	     14.16409699	      0.00000000	      0.00000000	    105.02863030	     -5.64198724	     -2.64328608	     70.20431366	      0.00000000	     -9.52427533	      1.22529642	     10.88325030	      0.00000000	      0.00000000
      7.90000000	      9.88297518	    -47.96606987	      5.07862413	     -0.11899807	      0.74147189	     -1.17977155	    105.81259534	    -15.05787764	     -1.17681023	     75.95938842	      0.00000000	      3.83371653	      1.32574143	     14.08064717	      0.00000000	      0.00000000	    104.90384844	     -5.66212868	     -2.72664479	     70.03194656	      0.00000000	     -9.52302857	      1.22228805	     10.79377947	      0.00000000	      0.00000000
      7.90500000	      9.84081552	    -47.96994250	      5.10629796	     -0.11915892	      0.74221956	     -1.17964833	    105.74672659	    -14.99919724	     -1.16490205	     75.80220106	      0.00000000	      3.81926848	      1.32299799	     13.95617269	      0.00000000	      0.00000000	    104.78479528	     -5.70773650	     -2.80097679	     69.84222780	      0.00000000	     -9.52357787	      1.21897683	     10.71211110	      0.00000000	      0.00000000
      7.91000000	     10.52580767	    -47.81283389	      4.92123259	     -0.11874607	      0.74326199	     -1.17996005	    105.22328647	    -15.81024486	     -1.95427950	     75.62279299	      0.00000000	      3.83229693	      1.31986673	     14.01282019	      0.00000000	      0.00000000	    104.59073308	     -4.89918504	     -2.09312607	     69.54899487	      0.00000000	     -9.19000977	      1.21385895	     10.55421151	      0.00000000	      0.00000000
      7.91500000	      9.84039391	    -47.96154922	      5.22334791	     -0.11940476	      0.74370013	     -1.17956537	    105.60657957	    -14.97049231	     -1.13341393	     75.50802245	      0.00000000	      3.81332380	      1.31786360	     13.76975684	      0.00000000	      0.00000000	    104.52935121	     -5.70792340	     -2.94489717	     69.45914260	      0.00000000	     -9.52053129	      1.21229073	     10.56243957	      0.00000000	      0.00000000
      7.92000000	     10.29327781	    -47.86899311	      4.98081560	     -0.11919881	      0.74456247	     -1.17974667	    105.20860896	    -15.52569198	     -1.77443229	     75.34781359	      0.00000000	      3.78147881	      1.31506743	     13.75517779	      0.00000000	      0.00000000	    104.42464702	     -5.12495272	     -2.32623240	     69.23256847	      0.00000000	     -9.16783184	      1.20833627	     10.37298743	      0.00000000	      0.00000000
      7.92500000	      9.66019718	    -47.93166833	      5.16220395	     -0.11965594	      0.74525201	     -1.17937647	    105.37723679	    -14.80668149	     -1.17534883	     75.15651899	      0.00000000	      3.78716301	      1.31172871	     13.55863578	      0.00000000	      0.00000000	    104.25465917	     -5.84044795	     -3.04165341	     69.09263327	      0.00000000	     -9.52081927	      1.20589394	     10.41307603	      0.00000000	      0.00000000
      7.93000000	     10.09858040	    -47.83715538	      4.86148752	     -0.11942217	      0.74617788	     -1.17954325	    104.94078687	    -15.36615937	     -1.88196626	     74.97337104	      0.00000000	      3.76809533	      1.30853218	     13.55936498	      0.00000000	      0.00000000	    104.15158669	     -5.25812747	     -2.37122908	     68.86192753	      0.00000000	     -9.16954465	      1.20186736	     10.21909759	      0.00000000	      0.00000000
      7.93500000	      9.54766310	    -47.90487490	      5.12466043	     -0.11992023	      0.74683256	     -1.17925950	    105.14219190	    -14.71620222	     -1.25133693	     74.79642710	      0.00000000	      3.79313199	      1.30544392	     13.36762936	      0.00000000	      0.00000000	    103.98175089	     -5.90410795	     -3.11277606	     68.70680760	      0.00000000	     -9.51840165	      1.19916001	     10.25124086	      0.00000000	      0.00000000
      7.94000000	      9.87872440	    -47.85199736	      4.90600108	     -0.11977198	      0.74772679	     -1.17928823	    104.81049107	    -15.14417275	     -1.82612633	     74.62404470	      0.00000000	      3.87631367	      1.30243528	     13.37138027	      0.00000000	      0.00000000	    103.89257937	     -5.51064070	     -2.67757329	     68.49440963	      0.00000000	     -9.50763489	      1.19545297	     10.13370984	      0.00000000	      0.00000000
      7.94500000	      9.41259524	    -47.86191618	      5.04312158	     -0.12015037	      0.74852264	     -1.17915501	    104.84625383	    -14.61741200	     -1.36832884	     74.39733844	      0.00000000	      3.80639966	      1.29847851	     13.20542680	      0.00000000	      0.00000000	    103.68183886	     -5.97902753	     -3.16307025	     68.29970476	      0.00000000	     -9.51696296	      1.19205473	     10.07543923	      0.00000000	      0.00000000
